# xmcd
#
# Track frame offsets:
#	182
#	24377
#	62460
#	87152
#	109367
#	129660
#	141460
#	170550
#	184190
#	196237
#	219910
#	244110
#	264582
#	277090
#	296685
#	308587
#	322555
#
# Disc length: 4607 seconds
#
# Revision: 0
# Processed by: cddbd v1.4PL0 Copyright (c) Steve Scherf et al.
# Submitted via: EasyCDDAExtractor 4.5.0.2
#
DISCID=f811fd11
DTITLE=le blues - toute la musique que j'aime 
DYEAR=1995
DGENRE=Blues
TTITLE0=Muddy Waters/ Mannish Boys
TTITLE1=George Thorogood and The Destroyers/ One Bourbon, One Scotch, One Beer
TTITLE2=Katie Webster and The Black Cat Bone/ Misty Blues
TTITLE3=Albert Collins, Robert Cray, Johnny Copeland/ T-bone Shuffle
TTITLE4=Lucky Peterson/ You Haven't Done Nothin'
TTITLE5=Johnny Winter/ Shake Your Money Maker
TTITLE6=Paul Personne/ Faire Semblant
TTITLE7=B.b.king/ Plaese Love Me
TTITLE8=John Lee Hooker/ Boom, Bomm, Boom, Boom
TTITLE9=John Campbell/ Ain't Afraid Of Midmight
TTITLE10=Stevie Ray Vaughan and The Double Trouble/ Texas Flood
TTITLE11=Robben Ford and The Blue Line/ He Don't Play Nothin' But The Blues
TTITLE12=Albert King/ Born Under A Bad Sign
TTITLE13=John Lee Hooker/ Shake It Baby
TTITLE14=Freddy King/ Hideaway
TTITLE15=Canned Heat/ Rolinn and Tumblin
TTITLE16=Johnny Hallyday/ La Musique Que J'aime
EXTD=
EXTT0=
EXTT1=
EXTT2=
EXTT3=
EXTT4=
EXTT5=
EXTT6=
EXTT7=
EXTT8=
EXTT9=
EXTT10=
EXTT11=
EXTT12=
EXTT13=
EXTT14=
EXTT15=
EXTT16=
PLAYORDER=
